<svg width="200" height="200" viewBox="0 0 200 200" fill="none" xmlns="http://www.w3.org/2000/svg">
  <rect x="40" y="20" width="40" height="160" rx="4" transform="rotate(-30 40 20)" fill="#FBB03B" />
  <rect x="55" y="35" width="20" height="2" transform="rotate(-30 55 35)" fill="#F59E0B" />
  <rect x="65" y="52" width="20" height="2" transform="rotate(-30 65 52)" fill="#F59E0B" />
  <rect x="75" y="69" width="20" height="2" transform="rotate(-30 75 69)" fill="#F59E0B" />
  <rect x="85" y="86" width="20" height="2" transform="rotate(-30 85 86)" fill="#F59E0B" />
  <rect x="95" y="103" width="20" height="2" transform="rotate(-30 95 103)" fill="#F59E0B" />
  <rect x="105" y="120" width="20" height="2" transform="rotate(-30 105 120)" fill="#F59E0B" />
  <rect x="115" y="137" width="20" height="2" transform="rotate(-30 115 137)" fill="#F59E0B" />
  <rect x="125" y="154" width="20" height="2" transform="rotate(-30 125 154)" fill="#F59E0B" />
  <path d="M45 25L55 30" stroke="white" stroke-opacity="0.3" stroke-width="2"/>
  <circle cx="60" cy="50" r="20" fill="white" fill-opacity="0.2" />
</svg>
